<?xml version="1.0" encoding="UTF-8"?>
<svg id="Ebene_2" data-name="Ebene 2" xmlns="http://www.w3.org/2000/svg" viewBox="0 0 185.32 197.47">
  <defs>
    <style>
      .cls-1 {
        fill: #f8ec22;
      }

      .cls-2 {
        fill: #1d1d1b;
      }

      .cls-3 {
        fill: #1740c1;
      }

      .cls-4 {
        fill: #f9ff00;
      }
    </style>
  </defs>
  <g id="Ebene_1" data-name="Ebene 1">
    <g>
      <g>
        <path d="M30.58,191.28v3.14h-2.05v-9.1h3.21c2.29,0,3.44.97,3.44,2.9,0,.91-.33,1.65-.99,2.22-.66.57-1.54.85-2.64.85h-.98ZM30.58,186.88v2.84h.81c1.09,0,1.64-.48,1.64-1.43s-.55-1.4-1.64-1.4h-.81Z"/>
        <path d="M41.8,194.41h-1.9v-.93h-.03c-.44.73-1.08,1.09-1.94,1.09-.63,0-1.13-.18-1.49-.54-.36-.36-.54-.83-.54-1.43,0-1.26.75-1.99,2.24-2.18l1.76-.24c0-.71-.39-1.07-1.16-1.07s-1.51.23-2.21.69v-1.51c.28-.14.66-.27,1.15-.38.48-.11.93-.16,1.32-.16,1.85,0,2.78.92,2.78,2.77v3.88ZM39.91,191.77v-.44l-1.18.15c-.65.08-.98.38-.98.88,0,.23.08.42.24.56.16.15.37.22.64.22.38,0,.68-.13.92-.39.24-.26.36-.59.36-.99Z"/>
        <path d="M50.13,194.41h-2.01v-.89h-.03c-.46.7-1.13,1.05-2.01,1.05-.81,0-1.47-.29-1.96-.86s-.74-1.38-.74-2.4.27-1.94.82-2.58,1.26-.97,2.15-.97c.84,0,1.42.3,1.75.9h.03v-3.87h2.01v9.62ZM48.16,191.25v-.49c0-.42-.12-.77-.37-1.05-.25-.28-.56-.42-.96-.42-.44,0-.79.17-1.04.52-.25.35-.38.83-.38,1.44,0,.57.12,1.01.36,1.32s.58.46,1,.46.74-.16.99-.49.38-.76.38-1.29Z"/>
        <path d="M58.05,191.73h-4.24c.07.94.66,1.42,1.78,1.42.72,0,1.34-.17,1.89-.51v1.45c-.6.32-1.38.48-2.34.48-1.05,0-1.86-.29-2.44-.87-.58-.58-.87-1.39-.87-2.43s.31-1.93.94-2.56c.63-.63,1.4-.95,2.31-.95s1.68.28,2.2.84c.52.56.78,1.33.78,2.29v.84ZM56.19,190.5c0-.93-.38-1.4-1.13-1.4-.32,0-.6.13-.83.4-.23.27-.38.6-.43,1h2.39Z"/>
        <path d="M61.64,194.41h-2.01v-9.62h2.01v9.62Z"/>
        <path d="M75.53,194.41h-2.35l-1.42-2.34c-.11-.18-.21-.34-.3-.48-.1-.14-.2-.26-.29-.36s-.2-.18-.31-.23c-.11-.05-.23-.08-.35-.08h-.55v3.48h-2.05v-9.1h3.25c2.21,0,3.31.83,3.31,2.48,0,.32-.05.61-.15.88-.1.27-.23.51-.41.73-.18.22-.39.4-.64.56-.25.16-.53.28-.84.37v.03c.13.04.27.11.39.21.13.09.25.21.37.33.12.13.23.26.34.41.11.15.21.29.29.43l1.72,2.69ZM69.94,186.85v2.53h.89c.44,0,.79-.13,1.06-.38.27-.26.41-.58.41-.96,0-.8-.48-1.19-1.43-1.19h-.93Z"/>
        <path d="M81.98,194.41h-1.9v-.93h-.03c-.44.73-1.08,1.09-1.94,1.09-.63,0-1.13-.18-1.49-.54-.36-.36-.54-.83-.54-1.43,0-1.26.75-1.99,2.24-2.18l1.76-.24c0-.71-.39-1.07-1.16-1.07s-1.51.23-2.21.69v-1.51c.28-.14.66-.27,1.15-.38.48-.11.93-.16,1.32-.16,1.85,0,2.78.92,2.78,2.77v3.88ZM80.1,191.77v-.44l-1.18.15c-.65.08-.98.38-.98.88,0,.23.08.42.24.56.16.15.37.22.64.22.38,0,.68-.13.92-.39.24-.26.36-.59.36-.99Z"/>
        <path d="M90.24,194.41h-2v-3.61c0-1.01-.36-1.51-1.08-1.51-.35,0-.63.13-.86.4-.22.27-.34.61-.34,1.02v3.71h-2.01v-6.5h2.01v1.03h.03c.48-.79,1.17-1.19,2.09-1.19,1.44,0,2.16.89,2.16,2.68v3.98Z"/>
        <path d="M98.58,193.67c0,1.21-.35,2.14-1.05,2.8s-1.71.99-3.03.99c-.88,0-1.57-.12-2.08-.37v-1.69c.67.39,1.34.58,2.02.58s1.2-.18,1.57-.54c.37-.36.56-.84.56-1.46v-.51h-.03c-.46.73-1.13,1.09-2.02,1.09-.83,0-1.49-.29-1.97-.88-.49-.58-.73-1.37-.73-2.35,0-1.1.27-1.97.81-2.62.54-.65,1.25-.97,2.14-.97.79,0,1.38.3,1.78.91h.03v-.76h2.01v5.76ZM96.6,191.29v-.51c0-.41-.12-.76-.36-1.05-.24-.29-.56-.44-.95-.44-.44,0-.79.17-1.05.52-.25.35-.38.83-.38,1.47,0,.54.12.97.36,1.29s.57.47.99.47.75-.16,1.01-.48.38-.74.38-1.27Z"/>
        <path d="M102.66,194.41h-2.01v-9.62h2.01v9.62Z"/>
        <path d="M105.75,186.88c-.34,0-.62-.1-.83-.3s-.32-.45-.32-.74.11-.55.32-.74.49-.29.83-.29.62.1.83.29.32.44.32.74-.11.55-.32.75-.49.29-.83.29ZM106.74,194.41h-2.01v-6.5h2.01v6.5Z"/>
        <path d="M108.39,194.24v-1.62c.33.2.66.35.99.45.33.1.64.15.93.15.36,0,.64-.05.84-.15.21-.1.31-.25.31-.45,0-.13-.05-.23-.14-.32-.09-.08-.21-.16-.36-.22-.15-.06-.31-.12-.48-.17-.17-.05-.34-.11-.5-.17-.26-.1-.49-.2-.68-.31-.2-.11-.36-.24-.5-.39-.13-.15-.23-.32-.3-.51-.07-.19-.1-.42-.1-.69,0-.36.08-.68.24-.94.16-.26.37-.48.63-.64s.57-.29.91-.37c.34-.08.7-.12,1.06-.12.29,0,.58.02.88.07.3.04.59.11.88.19v1.55c-.25-.15-.53-.26-.82-.33s-.57-.11-.85-.11c-.13,0-.25.01-.37.04-.12.02-.22.06-.31.1-.09.04-.16.1-.21.17-.05.07-.08.15-.08.24,0,.12.04.22.11.3s.18.16.3.22c.12.06.26.12.41.17.15.05.3.1.45.15.27.09.51.19.72.3s.4.24.55.39c.16.15.27.32.36.52.08.2.12.44.12.71,0,.38-.08.71-.25.99-.17.27-.39.5-.67.67-.28.17-.6.3-.96.37-.36.08-.74.12-1.13.12-.72,0-1.38-.11-1.99-.33Z"/>
        <path d="M118.86,194.34c-.3.16-.74.23-1.34.23-1.41,0-2.12-.73-2.12-2.2v-2.98h-1.05v-1.48h1.05v-1.4l2-.57v1.97h1.46v1.48h-1.46v2.63c0,.68.27,1.02.81,1.02.21,0,.43-.06.65-.18v1.49Z"/>
        <path d="M126.17,191.73h-4.24c.07.94.66,1.42,1.78,1.42.71,0,1.34-.17,1.88-.51v1.45c-.6.32-1.38.48-2.34.48-1.05,0-1.86-.29-2.44-.87-.58-.58-.87-1.39-.87-2.43s.31-1.93.94-2.56c.63-.63,1.4-.95,2.31-.95s1.68.28,2.2.84.78,1.33.78,2.29v.84ZM124.31,190.5c0-.93-.38-1.4-1.13-1.4-.32,0-.6.13-.83.4-.23.27-.38.6-.43,1h2.39Z"/>
        <path d="M134.03,194.41h-2v-3.61c0-1.01-.36-1.51-1.08-1.51-.35,0-.63.13-.86.4-.22.27-.34.61-.34,1.02v3.71h-2.01v-6.5h2.01v1.03h.03c.48-.79,1.17-1.19,2.09-1.19,1.44,0,2.16.89,2.16,2.68v3.98Z"/>
        <path d="M135.58,194.24v-1.62c.33.2.66.35.99.45.33.1.64.15.93.15.36,0,.64-.05.84-.15.21-.1.31-.25.31-.45,0-.13-.05-.23-.14-.32-.09-.08-.21-.16-.36-.22-.15-.06-.31-.12-.48-.17-.17-.05-.34-.11-.5-.17-.26-.1-.49-.2-.68-.31-.2-.11-.36-.24-.5-.39-.13-.15-.23-.32-.3-.51-.07-.19-.1-.42-.1-.69,0-.36.08-.68.24-.94.16-.26.37-.48.63-.64s.57-.29.91-.37c.34-.08.7-.12,1.06-.12.29,0,.58.02.88.07.3.04.59.11.88.19v1.55c-.25-.15-.53-.26-.82-.33s-.57-.11-.85-.11c-.13,0-.25.01-.37.04-.12.02-.22.06-.31.1-.09.04-.16.1-.21.17-.05.07-.08.15-.08.24,0,.12.04.22.11.3s.18.16.3.22c.12.06.26.12.41.17.15.05.3.1.45.15.27.09.51.19.72.3s.4.24.55.39c.16.15.27.32.36.52.08.2.12.44.12.71,0,.38-.08.71-.25.99-.17.27-.39.5-.67.67-.28.17-.6.3-.96.37-.36.08-.74.12-1.13.12-.72,0-1.38-.11-1.99-.33Z"/>
        <path d="M148.3,187.91l-2.64,7.02c-.63,1.69-1.59,2.53-2.87,2.53-.49,0-.89-.05-1.2-.16v-1.6c.27.16.56.23.87.23.52,0,.88-.24,1.08-.73l.34-.81-2.64-6.49h2.22l1.21,3.96c.08.25.14.54.18.87h.03c.04-.25.11-.53.21-.86l1.22-3.97h1.99Z"/>
        <path d="M149.07,194.24v-1.62c.33.2.66.35.99.45.33.1.64.15.93.15.36,0,.64-.05.84-.15.21-.1.31-.25.31-.45,0-.13-.05-.23-.14-.32-.09-.08-.21-.16-.36-.22-.15-.06-.31-.12-.48-.17-.17-.05-.34-.11-.5-.17-.26-.1-.49-.2-.68-.31-.2-.11-.36-.24-.5-.39-.13-.15-.23-.32-.3-.51-.07-.19-.1-.42-.1-.69,0-.36.08-.68.24-.94.16-.26.37-.48.63-.64s.57-.29.91-.37c.34-.08.7-.12,1.06-.12.29,0,.58.02.88.07.3.04.59.11.88.19v1.55c-.25-.15-.53-.26-.82-.33s-.57-.11-.85-.11c-.13,0-.25.01-.37.04-.12.02-.22.06-.31.1-.09.04-.16.1-.21.17-.05.07-.08.15-.08.24,0,.12.04.22.11.3s.18.16.3.22c.12.06.26.12.41.17.15.05.3.1.45.15.27.09.51.19.72.3s.4.24.55.39c.16.15.27.32.36.52.08.2.12.44.12.71,0,.38-.08.71-.25.99-.17.27-.39.5-.67.67-.28.17-.6.3-.96.37-.36.08-.74.12-1.13.12-.72,0-1.38-.11-1.99-.33Z"/>
        <path d="M159.54,194.34c-.3.16-.74.23-1.34.23-1.41,0-2.12-.73-2.12-2.2v-2.98h-1.05v-1.48h1.05v-1.4l2-.57v1.97h1.46v1.48h-1.46v2.63c0,.68.27,1.02.81,1.02.21,0,.43-.06.65-.18v1.49Z"/>
        <path d="M166.85,191.73h-4.24c.07.94.66,1.42,1.78,1.42.71,0,1.34-.17,1.88-.51v1.45c-.6.32-1.38.48-2.34.48-1.05,0-1.86-.29-2.44-.87-.58-.58-.87-1.39-.87-2.43s.31-1.93.94-2.56c.63-.63,1.4-.95,2.31-.95s1.68.28,2.2.84.78,1.33.78,2.29v.84ZM164.99,190.5c0-.93-.38-1.4-1.13-1.4-.32,0-.6.13-.83.4-.23.27-.38.6-.43,1h2.39Z"/>
        <path d="M178.75,194.41h-2v-3.71c0-.94-.35-1.42-1.04-1.42-.33,0-.6.14-.81.43-.21.28-.31.64-.31,1.06v3.64h-2.01v-3.75c0-.92-.34-1.38-1.02-1.38-.34,0-.62.14-.82.41-.21.27-.31.64-.31,1.11v3.61h-2.01v-6.5h2.01v1.02h.03c.21-.35.5-.63.87-.85.38-.22.78-.33,1.23-.33.92,0,1.55.4,1.89,1.21.5-.81,1.22-1.21,2.18-1.21,1.41,0,2.12.87,2.12,2.62v4.04Z"/>
      </g>
      <g>
        <path class="cls-1" d="M49.56,51.44c-6.2-.33-12.17-1.71-17.74-4.03,2.11-12.21,8.19-23.83,18.13-32.76C65.56.63,86.75-3.23,105.42,2.65c-1.07,13.07-6.94,25.79-17.45,35.23-10.57,9.5-24.22,14.32-38.41,13.56Z"/>
        <path class="cls-3" d="M73.65,85.77v26.79c-7.61-1.98-14.87-5.56-21.25-10.69v-16.1h21.25Z"/>
        <path class="cls-2" d="M102.43,72.79v39.86c-7.03,1.8-14.32,2.24-21.45,1.33v-41.19h21.45Z"/>
        <path class="cls-1" d="M139.62,32.11c-4.04,6.32-6.82,13.24-8.31,20.38h-23.75c-2.85,0-5.17,2.31-5.17,5.16v7.81h-23.51c-2.86,0-5.17,2.31-5.17,5.17v7.81h-23.48c-2.85,0-5.15,2.3-5.15,5.15v11.25c-9.82-11.25-14.46-25.28-14.09-39.16,5.75,2.14,11.85,3.41,18.14,3.75,1.12.06,2.23.09,3.35.09,15.11,0,29.51-5.51,40.84-15.69,11.44-10.28,18.1-23.93,19.82-38.13,6.49,3.15,12.5,7.57,17.62,13.27,3.56,3.96,6.46,8.27,8.7,12.82.05.11.11.21.16.32Z"/>
        <path class="cls-1" d="M140.33,80.8l-.09.21c-.78,1.7-1.63,3.37-2.58,5-.03.06-.18.27-.18.27v-30.08c1.55-4.96,3.67-9.85,5.84-14.32,3.59,12.88,2.54,26.7-2.99,38.92Z"/>
        <path class="cls-3" d="M8.32,172.01h-.1v15.34H0v-38.86h8.21v4h.1c2.03-3.1,4.88-4.65,8.55-4.65,3.45,0,6.11,1.18,7.99,3.55s2.82,5.58,2.82,9.66c0,4.44-1.1,8-3.29,10.68s-5.11,4.03-8.75,4.03c-3.21,0-5.65-1.25-7.33-3.74ZM8.08,161.09v2.13c0,1.84.49,3.34,1.46,4.5s2.24,1.74,3.82,1.74c1.87,0,3.32-.72,4.35-2.17s1.55-3.5,1.55-6.15c0-4.68-1.82-7.02-5.46-7.02-1.68,0-3.05.64-4.12,1.91s-1.6,2.96-1.6,5.06Z"/>
        <path class="cls-3" d="M55.64,175.1h-7.77v-3.82h-.1c-1.78,2.98-4.43,4.47-7.93,4.47-2.58,0-4.61-.73-6.1-2.2s-2.22-3.42-2.22-5.86c0-5.16,3.06-8.15,9.18-8.94l7.23-.96c0-2.91-1.58-4.37-4.73-4.37s-6.19.94-9.05,2.83v-6.19c1.14-.59,2.71-1.11,4.69-1.56s3.79-.68,5.42-.68c7.59,0,11.39,3.79,11.39,11.36v15.91ZM47.92,164.29v-1.79l-4.84.62c-2.67.35-4,1.55-4,3.61,0,.94.32,1.7.97,2.3s1.53.9,2.64.9c1.54,0,2.8-.53,3.77-1.6s1.46-2.41,1.46-4.04Z"/>
        <path class="cls-3" d="M88.19,175.1h-8.21v-3.67h-.1c-1.87,2.88-4.62,4.32-8.24,4.32-3.33,0-6-1.17-8.03-3.52s-3.04-5.63-3.04-9.84,1.12-7.93,3.35-10.58c2.24-2.65,5.16-3.98,8.79-3.98,3.43,0,5.82,1.23,7.17,3.69h.1v-13.7h8.21v37.28ZM80.13,162.15v-2c0-1.73-.5-3.17-1.51-4.32s-2.31-1.72-3.93-1.72c-1.82,0-3.24.71-4.26,2.14s-1.53,3.39-1.53,5.89c0,2.34.49,4.14,1.48,5.41s2.36,1.9,4.11,1.9,3.02-.67,4.07-2,1.57-3.1,1.57-5.3Z"/>
        <path class="cls-1" d="M118.26,175.1h-22.36v-37.28h21.5v6.84h-13.1v8.29h12.19v6.81h-12.19v8.53h13.96v6.81Z"/>
        <path class="cls-1" d="M146.44,175.1h-22.2v-37.28h8.4v30.47h13.8v6.81Z"/>
        <path class="cls-1" d="M166.89,175.75c-5.34,0-9.69-1.74-13.05-5.21s-5.04-8-5.04-13.58c0-5.89,1.71-10.66,5.12-14.3,3.41-3.64,7.94-5.46,13.57-5.46,5.32,0,9.62,1.74,12.91,5.22s4.93,8.08,4.93,13.78-1.7,10.58-5.11,14.17-7.85,5.38-13.32,5.38ZM167.25,144.42c-2.95,0-5.29,1.1-7.02,3.31s-2.6,5.13-2.6,8.77.87,6.61,2.6,8.76,4,3.22,6.81,3.22,5.19-1.04,6.89-3.13,2.55-4.99,2.55-8.7-.82-6.87-2.47-9.02-3.9-3.22-6.76-3.22Z"/>
        <path class="cls-4" d="M124.25,23.97c-.07.07-.15.15-.21.23-.07-.09-.15-.18-.22-.27.07-.07.14-.15.21-.22.07.09.15.17.22.26Z"/>
        <path class="cls-4" d="M124.04,23.71c-.07.07-.14.14-.21.21.07.1.14.19.22.28.06-.08.13-.16.21-.23-.08-.09-.15-.17-.22-.26Z"/>
        <path class="cls-3" d="M60.06,107.43c-2.7-1.54-5.26-3.31-7.66-5.27v-.03c2.4,1.97,4.96,3.74,7.66,5.3Z"/>
        <path class="cls-3" d="M102.43,72.79v40.3s-.07.02-.1.03c-.69.18-1.39.35-2.1.49-.38.09-.76.17-1.14.24-.07.02-.13.03-.19.03-.56.12-1.12.21-1.68.3-.59.1-1.18.18-1.77.26-.64.08-1.28.15-1.92.21-.56.05-1.12.1-1.68.13-.53.04-1.07.06-1.61.08-.68.03-1.36.04-2.05.04s-1.33-.01-1.98-.04c-.56,0-1.11-.04-1.66-.08-.6-.04-1.2-.08-1.79-.14-.6-.06-1.19-.13-1.78-.2v-41.65h21.45Z"/>
        <path class="cls-3" d="M102.43,113.09h0s-.07.03-.1.03c.03-.01.06-.02.1-.03Z"/>
        <path class="cls-3" d="M109.59,110.71c.14-.05.28-.11.42-.17-.14.06-.28.12-.42.18h0Z"/>
        <path class="cls-3" d="M130.23,59.81v36.37c-2.96,3.29-6.31,6.24-9.96,8.76-.53.36-1.06.71-1.59,1.05-.38.25-.77.49-1.16.72-.36.22-.72.44-1.08.65-.42.25-.85.49-1.29.72-.8.44-1.61.85-2.44,1.24-.41.2-.82.4-1.24.58-.35.16-.7.32-1.05.47-.14.06-.27.12-.41.17-.14.06-.28.12-.42.17v-50.9h20.64Z"/>
      </g>
    </g>
  </g>
</svg>