<?xml version="1.0" encoding="UTF-8"?>
<svg id="Ebene_2" data-name="Ebene 2" xmlns="http://www.w3.org/2000/svg" viewBox="0 0 185.32 187.34">
  <defs>
    <style>
      .cls-1 {
        fill: #f8ec22;
      }

      .cls-2 {
        fill: #1d1d1b;
      }

      .cls-3 {
        fill: #1740c1;
      }

      .cls-4 {
        fill: #f9ff00;
      }
    </style>
  </defs>
  <g id="Ebene_1" data-name="Ebene 1">
    <g>
      <path class="cls-1" d="M49.56,51.44c-6.2-.33-12.17-1.71-17.74-4.03,2.11-12.21,8.19-23.83,18.13-32.76C65.56.63,86.75-3.23,105.42,2.65c-1.07,13.07-6.94,25.79-17.45,35.23-10.57,9.5-24.22,14.32-38.41,13.56Z"/>
      <path class="cls-3" d="M73.65,85.77v26.79c-7.61-1.98-14.87-5.56-21.25-10.69v-16.1h21.25Z"/>
      <path class="cls-2" d="M102.43,72.79v39.86c-7.03,1.8-14.32,2.24-21.45,1.33v-41.19h21.45Z"/>
      <path class="cls-1" d="M139.62,32.11c-4.04,6.32-6.82,13.24-8.31,20.38h-23.75c-2.85,0-5.17,2.31-5.17,5.16v7.81h-23.51c-2.86,0-5.17,2.31-5.17,5.17v7.81h-23.48c-2.85,0-5.15,2.3-5.15,5.15v11.25c-9.82-11.25-14.46-25.28-14.09-39.16,5.75,2.14,11.85,3.41,18.14,3.75,1.12.06,2.23.09,3.35.09,15.11,0,29.51-5.51,40.84-15.69,11.44-10.28,18.1-23.93,19.82-38.13,6.49,3.15,12.5,7.57,17.62,13.27,3.56,3.96,6.46,8.27,8.7,12.82.05.11.11.21.16.32Z"/>
      <path class="cls-1" d="M140.33,80.8l-.09.21c-.78,1.7-1.63,3.37-2.58,5-.03.06-.18.27-.18.27v-30.08c1.55-4.96,3.67-9.85,5.84-14.32,3.59,12.88,2.54,26.7-2.99,38.92Z"/>
      <path class="cls-3" d="M8.32,172.01h-.1v15.34H0v-38.86h8.21v4h.1c2.03-3.1,4.88-4.65,8.55-4.65,3.45,0,6.11,1.18,7.99,3.55s2.82,5.58,2.82,9.66c0,4.44-1.1,8-3.29,10.68s-5.11,4.03-8.75,4.03c-3.21,0-5.65-1.25-7.33-3.74ZM8.08,161.09v2.13c0,1.84.49,3.34,1.46,4.5s2.24,1.74,3.82,1.74c1.87,0,3.32-.72,4.35-2.17s1.55-3.5,1.55-6.15c0-4.68-1.82-7.02-5.46-7.02-1.68,0-3.05.64-4.12,1.91s-1.6,2.96-1.6,5.06Z"/>
      <path class="cls-3" d="M55.64,175.1h-7.77v-3.82h-.1c-1.78,2.98-4.43,4.47-7.93,4.47-2.58,0-4.61-.73-6.1-2.2s-2.22-3.42-2.22-5.86c0-5.16,3.06-8.15,9.18-8.94l7.23-.96c0-2.91-1.58-4.37-4.73-4.37s-6.19.94-9.05,2.83v-6.19c1.14-.59,2.71-1.11,4.69-1.56s3.79-.68,5.42-.68c7.59,0,11.39,3.79,11.39,11.36v15.91ZM47.92,164.29v-1.79l-4.84.62c-2.67.35-4,1.55-4,3.61,0,.94.32,1.7.97,2.3s1.53.9,2.64.9c1.54,0,2.8-.53,3.77-1.6s1.46-2.41,1.46-4.04Z"/>
      <path class="cls-3" d="M88.19,175.1h-8.21v-3.67h-.1c-1.87,2.88-4.62,4.32-8.24,4.32-3.33,0-6-1.17-8.03-3.52s-3.04-5.63-3.04-9.84,1.12-7.93,3.35-10.58,5.16-3.98,8.79-3.98c3.43,0,5.82,1.23,7.17,3.69h.1v-13.7h8.21v37.28ZM80.13,162.15v-2c0-1.73-.5-3.17-1.51-4.32s-2.31-1.72-3.93-1.72c-1.82,0-3.24.71-4.26,2.14s-1.53,3.39-1.53,5.89c0,2.34.49,4.14,1.48,5.41s2.36,1.9,4.11,1.9,3.02-.67,4.07-2,1.57-3.1,1.57-5.3Z"/>
      <path class="cls-1" d="M118.26,175.1h-22.36v-37.28h21.5v6.84h-13.1v8.29h12.19v6.81h-12.19v8.53h13.96v6.81Z"/>
      <path class="cls-1" d="M146.44,175.1h-22.2v-37.28h8.4v30.47h13.8v6.81Z"/>
      <path class="cls-1" d="M166.89,175.75c-5.34,0-9.69-1.74-13.05-5.21s-5.04-8-5.04-13.58c0-5.89,1.71-10.66,5.12-14.3s7.94-5.46,13.57-5.46c5.32,0,9.62,1.74,12.91,5.22s4.93,8.08,4.93,13.78-1.7,10.58-5.11,14.17-7.85,5.38-13.32,5.38ZM167.25,144.42c-2.95,0-5.29,1.1-7.02,3.31s-2.6,5.13-2.6,8.77.87,6.61,2.6,8.76,4,3.22,6.81,3.22,5.19-1.04,6.89-3.13,2.55-4.99,2.55-8.7-.82-6.87-2.47-9.02-3.9-3.22-6.76-3.22Z"/>
      <path class="cls-4" d="M124.25,23.97c-.07.07-.15.15-.21.23-.07-.09-.15-.18-.22-.27.07-.07.14-.15.21-.22.07.09.15.17.22.26Z"/>
      <path class="cls-4" d="M124.04,23.71c-.07.07-.14.14-.21.21.07.1.14.19.22.28.06-.08.13-.16.21-.23-.08-.09-.15-.17-.22-.26Z"/>
      <path class="cls-3" d="M60.06,107.43c-2.7-1.54-5.26-3.31-7.66-5.27v-.03c2.4,1.97,4.96,3.74,7.66,5.3Z"/>
      <path class="cls-3" d="M102.43,72.79v40.3s-.07.02-.1.03c-.69.18-1.39.35-2.1.49-.38.09-.76.17-1.14.24-.07.02-.13.03-.19.03-.56.12-1.12.21-1.68.3-.59.1-1.18.18-1.77.26-.64.08-1.28.15-1.92.21-.56.05-1.12.1-1.68.13-.53.04-1.07.06-1.61.08-.68.03-1.36.04-2.05.04s-1.33-.01-1.98-.04c-.56,0-1.11-.04-1.66-.08-.6-.04-1.2-.08-1.79-.14-.6-.06-1.19-.13-1.78-.2v-41.65h21.45Z"/>
      <path class="cls-3" d="M102.43,113.09h0s-.07.03-.1.03c.03-.01.06-.02.1-.03Z"/>
      <path class="cls-3" d="M109.59,110.71c.14-.05.28-.11.42-.17-.14.06-.28.12-.42.18h0Z"/>
      <path class="cls-3" d="M130.23,59.81v36.37c-2.96,3.29-6.31,6.24-9.96,8.76-.53.36-1.06.71-1.59,1.05-.38.25-.77.49-1.16.72-.36.22-.72.44-1.08.65-.42.25-.85.49-1.29.72-.8.44-1.61.85-2.44,1.24-.41.2-.82.4-1.24.58-.35.16-.7.32-1.05.47-.14.06-.27.12-.41.17-.14.06-.28.12-.42.17v-50.9h20.64Z"/>
    </g>
  </g>
</svg>