<svg width="661" height="91" viewBox="0 0 661 91" fill="none" xmlns="http://www.w3.org/2000/svg">
<path d="M661 76C661 84.2843 654.284 91 646 91C637.716 91 631 84.2843 631 76C631 67.7157 637.716 61 646 61C654.284 61 661 67.7157 661 76Z" fill="url(#paint0_linear_1561_7758)"/>
<path d="M38.7368 0.117188H61.6488L69.5848 28.1492L77.6488 0.117188H100.561L85.5849 43.5092L92.1129 62.4532L111.697 0.117188H138.833L103.249 90.9972H82.5128L69.5848 58.4852L56.7848 90.9972H36.0488L0.464844 0.117188H27.4728L47.1848 62.4532L53.4568 43.5092L38.7368 0.117188Z" fill="#FFFAFA"/>
<path d="M209.827 69.2372V90.9972H145.059V0.117188H208.675V21.8772H170.019V34.6772H203.043V54.9012H170.019V69.2372H209.827Z" fill="#FFFAFA"/>
<path d="M298.746 67.7012C298.746 71.7972 297.893 75.3385 296.186 78.3252C294.479 81.2265 292.133 83.6159 289.146 85.4932C286.159 87.3705 282.661 88.7785 278.65 89.7172C274.725 90.5705 270.543 90.9972 266.106 90.9972H221.434V0.117188H274.17C277.327 0.117188 280.186 0.799856 282.746 2.16519C285.306 3.53052 287.482 5.32252 289.274 7.54119C291.066 9.67452 292.431 12.1492 293.37 14.9652C294.394 17.6959 294.906 20.5119 294.906 23.4132C294.906 27.6799 293.797 31.7759 291.578 35.7012C289.445 39.5412 286.202 42.4425 281.85 44.4052C287.055 45.9412 291.151 48.6292 294.138 52.4692C297.21 56.2239 298.746 61.3012 298.746 67.7012ZM273.402 62.5812C273.402 60.3625 272.805 58.5279 271.61 57.0772C270.415 55.5412 268.879 54.7732 267.002 54.7732H246.394V70.0052H266.106C268.154 70.0052 269.861 69.3652 271.226 68.0852C272.677 66.8052 273.402 64.9705 273.402 62.5812ZM246.394 21.3652V35.3172H263.418C265.125 35.3172 266.661 34.8479 268.026 33.9092C269.477 32.9705 270.202 31.0932 270.202 28.2772C270.202 25.8025 269.605 24.0532 268.41 23.0292C267.215 21.9199 265.807 21.3652 264.186 21.3652H246.394Z" fill="#FFFAFA"/>
<path d="M380.593 21.8772H354.481V90.9972H329.521V21.8772H303.281V0.117188H380.593V21.8772Z" fill="#FFFAFA"/>
<path d="M389.684 90.9972V0.117188H431.412C435.849 0.117188 439.945 1.05585 443.7 2.93319C447.455 4.72519 450.655 7.11452 453.3 10.1012C456.031 13.0025 458.164 16.3732 459.7 20.2132C461.236 23.9679 462.004 27.7652 462.004 31.6052C462.004 36.8959 460.852 41.8452 458.548 46.4532C456.244 50.9759 453.044 54.6879 448.948 57.5892L468.148 90.9972H439.988L423.988 63.0932H414.644V90.9972H389.684ZM414.644 41.3332H430.388C431.924 41.3332 433.332 40.4799 434.612 38.7732C435.977 37.0665 436.66 34.6772 436.66 31.6052C436.66 28.4479 435.892 26.0585 434.356 24.4372C432.82 22.7305 431.284 21.8772 429.748 21.8772H414.644V41.3332Z" fill="#FFFAFA"/>
<path d="M540.827 69.2372V90.9972H476.059V0.117188H539.675V21.8772H501.019V34.6772H534.043V54.9012H501.019V69.2372H540.827Z" fill="#FFFAFA"/>
<path d="M617.202 69.2372V90.9972H552.434V0.117188H616.05V21.8772H577.394V34.6772H610.418V54.9012H577.394V69.2372H617.202Z" fill="#FFFAFA"/>
<defs>
<linearGradient id="paint0_linear_1561_7758" x1="661" y1="76" x2="631" y2="76" gradientUnits="userSpaceOnUse">
<stop stop-color="#006039"/>
<stop offset="1" stop-color="#42B17C"/>
</linearGradient>
</defs>
</svg>
